HIERARCHY
ROOT Hips
{
  OFFSET 0 0 0
  CHANNELS 6 Xposition Yposition Zposition Zrotation Xrotation Yrotation
  JOINT Spine
  {
    OFFSET 0 10 0
    CHANNELS 3 Zrotation Xrotation Yrotation
    JOINT Neck
    {
      OFFSET 0 15 0
      CHANNELS 3 Zrotation Xrotation Yrotation
      JOINT Head
      {
        OFFSET 0 5 0
        CHANNELS 3 Zrotation Xrotation Yrotation
        End Site
        {
          OFFSET 0 3 0
        }
      }
    }
    JOINT LeftShoulder
    {
      OFFSET 5 12 0
      CHANNELS 3 Zrotation Xrotation Yrotation
      JOINT LeftElbow
      {
        OFFSET 10 0 0
        CHANNELS 3 Zrotation Xrotation Yrotation
        JOINT LeftWrist
        {
          OFFSET 8 0 0
          CHANNELS 3 Zrotation Xrotation Yrotation
          End Site
          {
            OFFSET 4 0 0
          }
        }
      }
    }
    JOINT RightShoulder
    {
      OFFSET -5 12 0
      CHANNELS 3 Zrotation Xrotation Yrotation
      JOINT RightElbow
      {
        OFFSET -10 0 0
        CHANNELS 3 Zrotation Xrotation Yrotation
        JOINT RightWrist
        {
          OFFSET -8 0 0
          CHANNELS 3 Zrotation Xrotation Yrotation
          End Site
          {
            OFFSET -4 0 0
          }
        }
      }
    }
  }
  JOINT LeftHip
  {
    OFFSET 3.5 0 0
    CHANNELS 3 Zrotation Xrotation Yrotation
    JOINT LeftKnee
    {
      OFFSET 0 -15 0
      CHANNELS 3 Zrotation Xrotation Yrotation
      JOINT LeftAnkle
      {
        OFFSET 0 -15 0
        CHANNELS 3 Zrotation Xrotation Yrotation
        End Site
        {
          OFFSET 0 -3 5
        }
      }
    }
  }
  JOINT RightHip
  {
    OFFSET -3.5 0 0
    CHANNELS 3 Zrotation Xrotation Yrotation
    JOINT RightKnee
    {
      OFFSET 0 -15 0
      CHANNELS 3 Zrotation Xrotation Yrotation
      JOINT RightAnkle
      {
        OFFSET 0 -15 0
        CHANNELS 3 Zrotation Xrotation Yrotation
        End Site
        {
          OFFSET 0 -3 5
        }
      }
    }
  }
}
MOTION
Frames: 18
Frame Time: 0.03333333333333333
59.94371473789215 -56.076985597610474 0.004349648952484131 -4.623203677757647 3.438425113188738 0.0 -0.0 0.0 0.0 -2.701530530469055 69.06402494358295 0.0 -0.0 0.0 0.0 -83.88850679563652 0.0 38.37524534958667 -44.850653022018506 0.0 -60.781698225170516 0.0 0.0 0.0 48.90283615553557 0.0 56.145472041876715 -5.670251643824653 0.0 112.60510620189996 -0.0 0.0 0.0 17.08088017688161 -27.964804188301283 0.0 -11.870229321088978 36.956105815944994 0.0 0.0 -0.0 0.0 -8.371578753778968 -10.87013431249701 -0.0 -9.467925728431355 32.19111245088839 0.0 0.0 -0.0 0.0
59.94713306427002 -56.18705749511719 0.004220008850097656 -4.453369870011142 1.0108133099024401 0.0 -0.0 0.0 0.0 -3.0734211369205777 68.82601977456115 0.0 -0.0 0.0 0.0 -79.72354807821834 0.0 45.824256050446756 -48.3948061343386 0.0 -56.16221409099213 0.0 0.0 0.0 46.50007130566237 0.0 59.45085071127421 -5.165205294266833 0.0 111.05399413858582 -0.0 0.0 0.0 18.053323701067637 -17.10986845152855 0.0 -11.874461052530537 37.17099840318095 0.0 0.0 -0.0 0.0 -8.503316634672748 -8.105789252023053 -0.0 -9.380102502328329 33.5878419809161 0.0 0.0 -0.0 0.0
59.93793308734894 -56.23650252819061 0.004411488771438599 -4.058714467886752 0.6939441479108963 0.0 -0.0 0.0 0.0 -3.7917060824991697 69.21161827446471 0.0 -0.0 0.0 0.0 -79.28266760068895 0.0 45.026039424292534 -46.6998080731732 0.0 -58.80550031424383 0.0 0.0 0.0 48.75647172916307 0.0 58.02758792263078 8.440325006344894 0.0 111.0393756729136 -0.0 0.0 0.0 17.941809122936842 -21.34361697364989 0.0 -11.839724153373515 37.528009179759295 0.0 0.0 -0.0 0.0 -8.621335974102086 -8.098910512728407 -0.0 -9.225725820025039 34.546080791374415 0.0 0.0 -0.0 0.0
59.93191599845886 -56.26290142536163 0.004577264189720154 -3.8534581918850264 0.6637464993957004 0.0 -0.0 0.0 0.0 -4.173221415619949 69.60387246068353 0.0 -0.0 0.0 0.0 -79.03934586678557 0.0 44.62924241518511 -46.367823696471056 0.0 -59.44725309906057 0.0 0.0 0.0 49.526275253580756 0.0 57.87386563175004 11.295177368175093 0.0 110.34164075593965 -0.0 0.0 0.0 17.92118425750591 -23.065828821816527 0.0 -11.794645670192656 37.97653508661075 0.0 0.0 -0.0 0.0 -8.686744680171683 -8.069413662250895 -0.0 -9.113703523797833 35.35082716801462 0.0 0.0 -0.0 0.0
59.920141100883484 -56.26170635223389 0.004589557647705078 -3.7049371876381225 0.9667073633404034 0.0 -0.0 0.0 0.0 -4.505732076881719 69.67525015310613 0.0 -0.0 0.0 0.0 -79.72944081705435 0.0 42.81289348622114 -46.1699829358056 0.0 -59.84221381943694 0.0 0.0 0.0 52.61055658865168 0.0 55.68956653763693 27.24096738399918 0.0 106.48290576549162 -0.0 0.0 0.0 17.76367236531385 -25.97723235506548 0.0 -12.002297768844286 36.04996940621752 0.0 0.0 -0.0 0.0 -8.685173501326874 -10.706500877681993 -0.0 -9.266802065432092 32.796032658004734 0.0 0.0 -0.0 0.0
59.9113404750824 -56.27760887145996 0.004507601261138916 -3.5841008931835447 1.1972171885891159 0.0 -0.0 0.0 0.0 -4.790832425668245 69.5348849780026 0.0 -0.0 0.0 0.0 -79.91086239844735 0.0 41.91614540313974 -45.64044991949256 0.0 -61.00577380215978 0.0 0.0 0.0 60.19940292125225 0.0 49.46172072858209 41.676777832693155 0.0 100.15338934463696 -0.0 0.0 0.0 18.057661737507583 -23.468767991329376 0.0 -11.991588192123727 36.19573149244916 0.0 0.0 -0.0 0.0 -8.765893734909616 -11.492163642392548 -0.0 -9.182861176522957 32.9461336368735 0.0 0.0 -0.0 0.0
59.90469455718994 -56.273749470710754 0.004422664642333984 -3.559907360646356 1.3256180034579679 0.0 -0.0 0.0 0.0 -4.913959550643626 69.36823448945317 0.0 -0.0 0.0 0.0 -80.1427680526764 0.0 41.31173250463073 -45.886984846532 0.0 -61.04883346616292 0.0 0.0 0.0 61.94653405658372 0.0 48.222781552653466 40.999581089646306 0.0 99.01260760296432 -0.0 0.0 0.0 18.184467055856643 -22.35402185749728 0.0 -12.065211475916708 35.59176792365201 0.0 0.0 -0.0 0.0 -8.805094187972763 -11.950070681267679 -0.0 -9.165354453386112 32.99524219660781 0.0 0.0 -0.0 0.0
59.90038216114044 -56.26108944416046 0.004403665661811829 -3.5519290848175293 1.395038511189965 0.0 -0.0 0.0 0.0 -4.996949383883288 69.24775400993113 0.0 -0.0 0.0 0.0 -80.29576901702286 0.0 40.92891099192581 -46.02913169200761 0.0 -61.047365145530584 0.0 0.0 0.0 63.41821855229478 0.0 46.45589707323883 43.10262909312288 0.0 98.5744325872329 -0.0 0.0 0.0 18.254012077742154 -21.566496782094077 0.0 -12.122963734916482 35.100304948083995 0.0 0.0 -0.0 0.0 -8.837760661141512 -11.75694695268403 -0.0 -9.197923547891003 32.95731210386307 0.0 0.0 -0.0 0.0
59.89680290222168 -56.248706579208374 0.004297494888305664 -3.549058165347302 1.6332488633971387 0.0 -0.0 0.0 0.0 -5.109969023571123 68.84036705879488 0.0 -0.0 0.0 0.0 -80.5283044390768 0.0 40.40594091788735 -46.43972372692997 0.0 -60.68549046751138 0.0 0.0 0.0 64.45508540366461 0.0 44.8148775270549 44.79798620006826 0.0 98.23887191343425 -0.0 0.0 0.0 18.264624806486875 -21.429513717838443 0.0 -12.14622133462763 34.930825339926756 0.0 0.0 -0.0 0.0 -8.904995555977369 -9.832166183461863 -0.0 -9.305815273069754 31.82841703928787 0.0 0.0 -0.0 0.0
59.847816824913025 -56.35163486003876 0.005130469799041748 -3.4851717950086245 2.1541275800335873 0.0 -0.0 0.0 0.0 -4.487505359071279 69.6900265350872 0.0 -0.0 0.0 0.0 -80.24659838503509 0.0 40.21199989040804 -46.168917509369905 0.0 -61.5169805775117 0.0 0.0 0.0 67.84313583227262 0.0 40.04051193788284 47.81359724639755 0.0 96.46018726059069 -0.0 0.0 0.0 17.812680874123473 -27.999309082822446 0.0 -11.947819479515266 36.778136336159015 0.0 0.0 -0.0 0.0 -9.054824847968941 -7.264185214618094 -0.0 -8.98283365222581 34.891207607070584 0.0 0.0 -0.0 0.0
59.78340208530426 -56.4190149307251 0.005423650145530701 -3.495964894122184 2.111909850634227 0.0 -0.0 0.0 0.0 -4.1571976944533615 70.29323905459863 0.0 -0.0 0.0 0.0 -81.0710643531782 0.0 38.12006392963658 -43.60397864959554 0.0 -64.42418076139049 0.0 0.0 0.0 68.67276433031587 0.0 39.564808343007506 51.96664178333041 0.0 94.13061781546237 -0.0 0.0 0.0 17.76622307344311 -30.55693249567548 0.0 -11.82665557155884 37.683861688255895 0.0 0.0 -0.0 0.0 -9.00754808028372 -6.942234806981145 -0.0 -8.861049392527816 36.06564464545836 0.0 0.0 -0.0 0.0
59.750279784202576 -56.460049748420715 0.005643442273139954 -3.4832344599408067 2.0743317020424596 0.0 -0.0 0.0 0.0 -4.22089209656291 70.11015797020887 0.0 -0.0 0.0 0.0 -81.2616748513451 0.0 37.36813872336032 -43.87846489491318 0.0 -64.20345932946739 0.0 0.0 0.0 69.60669605927544 0.0 38.187228842840454 56.490813144968534 0.0 92.66768714393032 -0.0 0.0 0.0 17.950748762690164 -30.17932472778455 0.0 -11.827864759627648 37.465291297201006 0.0 0.0 -0.0 0.0 -8.99416407992888 -6.576815914923234 -0.0 -8.883243663569125 35.762223381912825 0.0 0.0 -0.0 0.0
59.74316596984863 -56.54387176036835 0.0056024640798568726 -3.3683293812072788 1.9547446405963036 0.0 -0.0 0.0 0.0 -4.567716621097677 69.08581742000271 0.0 -0.0 0.0 0.0 -81.35713990812185 0.0 36.96977405468904 -44.26269480059546 0.0 -63.55214043163727 0.0 0.0 0.0 68.12507551628231 0.0 41.75357373655754 51.853416689364664 0.0 92.61576758526613 -0.0 0.0 0.0 18.084177347401475 -29.21196914869693 0.0 -11.873640672115105 36.80146699642182 0.0 0.0 -0.0 0.0 -9.107447569876834 -6.460319202662418 -0.0 -8.901133917919445 35.22535394398551 0.0 0.0 -0.0 0.0
59.737956523895264 -56.58349096775055 0.005591660737991333 -3.2923369201031982 1.4976649294624151 0.0 -0.0 0.0 0.0 -4.8061341699683595 68.50656990945085 0.0 -0.0 0.0 0.0 -81.67139482948397 0.0 36.10900286253205 -44.35094900365369 0.0 -63.3291190521181 0.0 0.0 0.0 67.51897980207669 0.0 43.01257775548625 52.5035358011778 0.0 92.08845515566622 -0.0 0.0 0.0 18.135212474263657 -28.82604261866919 0.0 -11.845141669886099 36.82757203731666 0.0 0.0 -0.0 0.0 -9.174000770658912 -6.332237340776694 -0.0 -8.864996131469495 35.28523415347123 0.0 0.0 -0.0 0.0
59.73607897758484 -56.60659670829773 0.005536526441574097 -3.2685740285982656 1.4649863177266709 0.0 -0.0 0.0 0.0 -4.8177059775632145 68.53656684016273 0.0 -0.0 0.0 0.0 -81.70601612360578 0.0 36.14638633379751 -44.45101050675068 0.0 -63.06337437919315 0.0 0.0 0.0 67.73852423122878 0.0 42.75900483265809 54.23150324506315 0.0 90.87667057679116 -0.0 0.0 0.0 18.24095568506694 -27.724459428316173 0.0 -11.884651932853178 36.260825414544684 0.0 0.0 -0.0 0.0 -9.22560506395384 -6.674169114638796 -0.0 -8.848864634459702 35.15365288389831 0.0 0.0 -0.0 0.0
59.72828269004822 -56.61658048629761 0.005530938506126404 -3.233739053573557 1.4574081254719398 0.0 -0.0 0.0 0.0 -4.718731624792008 68.93815159455069 0.0 -0.0 0.0 0.0 -81.63561186803938 0.0 36.21603165873651 -44.50241242858227 0.0 -62.95275938763222 0.0 0.0 0.0 68.49114361284889 0.0 41.48312142504213 56.21813290656705 0.0 89.67288427654968 -0.0 0.0 0.0 18.189685429706326 -27.975779406713936 0.0 -11.87673887053991 36.09724645877602 0.0 0.0 -0.0 0.0 -9.21447678815622 -7.431457047524979 -0.0 -8.81505658042822 35.22504319986457 0.0 0.0 -0.0 0.0
59.72164869308472 -56.62542283535004 0.005536898970603943 -3.22501558843851 1.420146273083814 0.0 -0.0 0.0 0.0 -4.546628534875542 69.44827954704542 0.0 -0.0 0.0 0.0 -81.65382515158255 0.0 36.175281078744604 -44.490437025754574 0.0 -62.916174589212645 0.0 0.0 0.0 68.77707556930643 0.0 40.953659782624534 56.571480100345674 0.0 89.30029454754467 -0.0 0.0 0.0 18.172725324280325 -27.993437643493127 0.0 -11.855957080986514 36.10409944117017 0.0 0.0 -0.0 0.0 -9.198111426417128 -7.771965489545909 -0.0 -8.7862662558256 35.42023010188964 0.0 0.0 -0.0 0.0
59.71614718437195 -56.63466155529022 0.00553913414478302 -3.2220015782809894 1.410082748473144 0.0 -0.0 0.0 0.0 -4.38322108764075 69.8580199702473 0.0 -0.0 0.0 0.0 -81.64473740252731 0.0 36.1994196513112 -44.386518879044964 0.0 -62.992785268691904 0.0 0.0 0.0 68.61162123855941 0.0 41.34173892585191 55.91506648582411 0.0 89.33513976038799 -0.0 0.0 0.0 18.177754958247352 -27.89554245178139 0.0 -11.837046334056444 36.146221846411564 0.0 0.0 -0.0 0.0 -9.183020232204655 -8.092923925448897 -0.0 -8.763351556307875 35.62820988075441 0.0 0.0 -0.0 0.0
